<svg version="1.1" id="icon-chef-hat" xmlns="http://www.w3.org/2000/svg" xmlns:xlink="http://www.w3.org/1999/xlink" x="0px" y="0px"
	 viewBox="0 0 325.6 325.6" style="enable-background:new 0 0 325.6 325.6;" xml:space="preserve">
		<path d="M256.4,85.6c-4.8,0-10,0.4-14.8,1.6c-2-42.4-37.2-76.4-80.4-76.4c-42.8,0-78,33.6-80.4,76c-4-0.8-8-1.2-11.6-1.2
			c-38,0-69.2,31.2-69.2,69.2c0,36.4,28,66.4,64,68.8v71.6c0,2,1.2,4,3.2,4.8c1.6,0.8,35.2,14.8,95.6,14.8c58.4,0,94-14,95.6-14.8
			c2-0.8,3.2-2.8,3.2-4.8v-38.4v-33.2c35.6-2.8,64-32.8,64-68.8C325.6,116.8,294.4,85.6,256.4,85.6z M251.2,291.2
			c-10,3.6-42,13.2-88.4,13.2c-47.6,0-78.4-9.2-88.4-12.8v-27.2c13.2,4.4,43.2,12,88.4,12c44,0,74.8-8,88.4-12.4V291.2z
			 M256.4,213.2c-2.8,0-5.2,2.4-5.2,5.2v34.4c-10,3.2-41.6,12.8-88.4,12.8c-48,0-78.8-9.2-88.4-12.8v-34c0-2.8-2.4-5.2-5.2-5.2
			c-32.4-0.4-58.4-26.4-58.4-58.8c0-32.4,26.4-58.4,58.4-58.4c5.2,0,10.4,0.8,15.6,2c1.6,0.4,3.2,0,4.8-0.8c1.2-1.2,2-2.8,2-4.4V92
			c0-0.4,0-0.8,0-0.8c0-38.4,31.2-69.6,69.6-69.6c38.4-0.4,69.6,30.8,69.6,69.2c0,0.4,0,1.2,0,1.6v1.2c0,1.6,0.8,3.6,2,4.4
			c1.2,1.2,3.2,1.2,4.8,0.8c6-2,12.4-3.2,18.4-3.2c32.4,0,58.4,26.4,58.4,58.4S288.8,213.2,256.4,213.2z"/>
</svg>
