<svg xmlns="http://www.w3.org/2000/svg" xmlns:xlink="http://www.w3.org/1999/xlink" version="1.1" id="icon-chopsticks" x="0px" y="0px" viewBox="0 0 496 496" style="enable-background:new 0 0 496 496;" xml:space="preserve">
  <g>
		<path d="M128,0c-8.744,0-15.992,7.112-16.144,15.856L104,448v24c0,13.232,10.768,24,24,24s24-10.768,24-24v-24.144l-7.856-432     C143.992,7.112,136.744,0,128,0z M128.144,16.144L135.416,416H120.6L128.144,16.144z M136,472c0,4.408-3.592,8-8,8s-8-3.592-8-8     v-23.856L120.304,432h15.408L136,448V472z"/>
		<path d="M192,0c-8.744,0-15.992,7.112-16.144,15.856L168,448v24c0,13.232,10.768,24,24,24s24-10.768,24-24v-24.144l-7.856-432     C207.992,7.112,200.744,0,192,0z M192.144,16.144L199.416,416H184.6L192.144,16.144z M200,472c0,4.408-3.592,8-8,8s-8-3.592-8-8     v-23.856L184.304,432h15.408L200,448V472z"/>
		<path d="M355.488,134.584C378.008,121.816,392,97.832,392,72c0-21.592-9.568-41.848-26.24-55.592     c-16.672-13.736-38.608-19.208-60.176-15c-28.632,5.584-51.304,28.68-56.416,57.472c-5.448,30.728,8.424,60.44,35.36,75.704     c7.072,4.008,11.472,11.84,11.472,20.44v186.68c0,34.888-4.104,65.504-12.536,93.608C281.264,442.64,280,450.176,280,456     c0,22.056,17.944,40,40,40c22.056,0,40-17.944,40-40c0-5.824-1.264-13.36-3.464-20.688C348.104,407.216,344,376.592,344,341.704     v-186.68C344,146.432,348.4,138.6,355.488,134.584z M320,480c-13.232,0-24-10.768-24-24c0-4.2,1.064-10.36,2.792-16.088     c8.696-28.976,12.96-60.416,13.144-95.912h16.144c0.184,35.496,4.44,66.936,13.144,95.912C342.936,445.64,344,451.8,344,456     C344,469.232,333.232,480,320,480z M312,328v-16h16v16H312z M328,155.024V296h-16V155.024c0-14.344-7.504-27.512-19.592-34.36     c-20.952-11.872-31.744-35.032-27.488-58.992c3.96-22.328,21.528-40.24,43.72-44.568c3.736-0.728,7.488-1.088,11.2-1.088     c13.04,0,25.648,4.416,35.736,12.736C368.56,39.448,376,55.208,376,72c0,20.08-10.88,38.728-28.4,48.664     C335.504,127.512,328,140.68,328,155.024z"/>
		<path d="M280,72h16c0-13.232,10.768-24,24-24V32C297.944,32,280,49.944,280,72z"/>
	</g>
</svg>
