<svg xmlns="http://www.w3.org/2000/svg" xmlns:xlink="http://www.w3.org/1999/xlink" version="1.1" id="icon-whisk" x="0px" y="0px" viewBox="0 0 512 512" style="enable-background:new 0 0 512 512;" xml:space="preserve">
	<g>
		<path d="M508.284,23.19c-1.985-4.245-4.725-8.123-8.038-11.436C488.404-0.09,469.896-3.387,454.703,3.716    c-4.245,1.985-8.123,4.725-11.436,8.038c-0.83,0.83-107.303,119.863-196.475,219.573c-0.038,0.043-0.069,0.089-0.107,0.132    c-28.433-5.469-68.256,6.543-93.161,15.869c-47.514,17.792-95.785,46.091-120.114,70.422    C10.07,341.088-1.722,371.478,0.204,403.32c1.664,27.515,13.288,54.228,31.969,73.634c0.682,1.201,1.671,2.189,2.871,2.871    c19.407,18.682,46.12,30.307,73.635,31.97c2.249,0.136,4.485,0.204,6.717,0.204c29.378,0,57.164-11.72,78.854-33.411    c24.33-24.329,52.63-72.6,70.422-120.114c9.325-24.905,21.338-64.727,15.869-93.16c0.043-0.037,0.089-0.068,0.132-0.107    l66.638-59.6c3.149-2.817,3.419-7.653,0.602-10.802c-2.817-3.149-7.652-3.419-10.802-0.602l-61.244,54.776l-12.848-12.848    c29.705-33.214,186.335-208.343,191.172-213.665c9.649-9.537,25.644-9.486,35.235,0.105c9.591,9.591,9.643,25.588,0.105,35.236    c-1.847,1.678-25.454,22.825-124.988,111.858c-3.149,2.816-3.419,7.653-0.602,10.802c2.816,3.15,7.652,3.419,10.802,0.602    C499.526,69.454,499.942,69.037,500.246,68.733C512.09,56.89,515.387,38.381,508.284,23.19z M22.173,433.021    c-3.752-9.749-6.062-20.115-6.697-30.624c-1.172-19.391,2.864-47.94,28.753-73.83c22.927-22.927,69.005-49.816,114.661-66.912    c25.354-9.493,47.889-14.881,65.494-16.003c-13.683,5.744-30.385,14.53-48.767,25.675    c-40.333,24.455-83.569,57.024-107.587,81.042C40.164,380.235,25.694,409.045,22.173,433.021z M38.648,428.05    c5.133-21.034,19.409-44.069,40.201-64.861c22.952-22.952,64.6-54.349,103.634-78.129c20.17-12.287,38.168-21.627,52.049-27.01    c5.264-2.041,9.424-3.32,12.708-4.108L39.985,461.196C36.013,452.93,35.451,441.158,38.648,428.05z M50.805,472.014    L258.059,264.76c-0.786,3.284-2.067,7.445-4.108,12.708c-5.383,13.88-14.723,31.879-27.01,52.049    c-23.78,39.034-55.177,80.681-78.129,103.634c-20.792,20.792-43.827,35.068-64.861,40.201    C70.842,476.548,59.07,475.986,50.805,472.014z M266.346,287.62c-1.123,17.605-6.51,40.14-16.002,65.49    c-17.095,45.656-43.985,91.734-66.912,114.661c-25.889,25.889-54.437,29.924-73.829,28.753    c-10.512-0.635-20.88-2.948-30.632-6.701c23.978-3.519,52.79-17.985,80.659-45.854c24.018-24.018,56.587-67.255,81.042-107.587    C251.816,318.003,260.603,301.302,266.346,287.62z"/>
	</g>
</svg>
